<?xml version="1.0" encoding="UTF-8"?>
<svg id="Layer_2" data-name="Layer 2" xmlns="http://www.w3.org/2000/svg" viewBox="0 0 275.79 104.45">
  <defs>
    <style>
      .cls-1 {
        fill: #e95624;
      }
    </style>
  </defs>
  <g id="Layer_1-2" data-name="Layer 1">
    <g>
      <path d="M272.24,1.49c-1.96,0-3.55,1.59-3.55,3.55v94.38c0,1.96,1.59,3.55,3.55,3.55s3.55-1.59,3.55-3.55V5.03c0-1.96-1.59-3.55-3.55-3.55Z"/>
      <path d="M87.75,0c-14.92,0-29.18,6.45-39.12,17.7-1.3,1.47-1.16,3.71.31,5.01,1.47,1.3,3.71,1.16,5.01-.31,8.59-9.72,20.91-15.3,33.8-15.3,23.69,0,43.16,18.35,44.98,41.58h-43.49c-1.96,0-3.55,1.59-3.55,3.55s1.59,3.55,3.55,3.55h43.49c-1.82,23.23-21.29,41.58-44.98,41.58-12.89,0-25.21-5.58-33.8-15.3-1.29-1.47-3.54-1.61-5.01-.31-1.47,1.3-1.61,3.54-.31,5.01,9.94,11.25,24.19,17.7,39.12,17.7,28.8,0,52.22-23.43,52.22-52.22S116.55,0,87.75,0Z"/>
      <path d="M204.33,7.1c12.89,0,25.21,5.58,33.8,15.3l5.32-4.7C233.52,6.45,219.26,0,204.33,0c-28.8,0-52.22,23.43-52.22,52.22v3.55h97.21c-1.82,23.23-21.3,41.58-44.99,41.58-12.89,0-25.21-5.58-33.8-15.3l-5.32,4.7c9.94,11.25,24.19,17.7,39.12,17.7,28.8,0,52.22-23.43,52.22-52.22v-3.55h-97.21c1.82-23.23,21.3-41.58,44.99-41.58Z"/>
    </g>
    <path class="cls-1" d="M36.79,48.67h-13.07v-13.07c0-1.96-1.59-3.55-3.55-3.55s-3.55,1.59-3.55,3.55v13.07H3.55c-1.96,0-3.55,1.59-3.55,3.55s1.59,3.55,3.55,3.55h13.07v13.08c0,1.96,1.59,3.55,3.55,3.55s3.55-1.59,3.55-3.55v-13.08h13.07c1.96,0,3.55-1.59,3.55-3.55s-1.59-3.55-3.55-3.55Z"/>
  </g>
</svg>