<svg xmlns="http://www.w3.org/2000/svg" viewBox="0 0 280 100" width="280" height="100">
  <rect x="0" y="34" width="52" height="12" rx="6" fill="#E8713A"/>
  <rect x="20" y="14" width="12" height="52" rx="6" fill="#E8713A"/>
  <g fill="#111d2e">
    <path d="M72 20c12 0 22 5 22 16 0 7-5 12-12 14v.5c9 2 14 8 14 16 0 12-11 18-24 18s-23-6-23-16h14c0 5 4 7 9 7s9-3 9-8-4-9-11-9h-5v-10h5c6 0 10-3 10-8s-3-7-8-7-8 3-8 7H50c0-11 10-16 22-16z"/>
  </g>
  <g fill="#111d2e">
    <path d="M120 21h36v12h-23l-2 13c3-2 7-3 11-3 14 0 23 9 23 22s-10 23-25 23c-14 0-23-8-23-19h14c1 6 4 9 10 9 7 0 11-5 11-13s-4-12-11-12c-5 0-8 2-10 5l-12-3 5-34z"/>
  </g>
  <g fill="#111d2e">
    <path d="M186 21h16v63h-15V39l-14 5-4-12z"/>
  </g>
</svg>
